M48
;DRILL file {KiCad 5.0.2-bee76a0~70~ubuntu18.04.1} date Wed Mar  6 00:47:09 2019
;FORMAT={-:-/ absolute / inch / decimal}
FMAT,2
INCH,TZ
T1C0.0276
T2C0.0315
T3C0.0394
%
G90
G05
T1
X2.6Y-3.7
X3.9Y-3.2
X4.Y-3.2
X2.Y-3.
X2.1Y-3.
X4.Y-2.7
X4.1Y-2.7
X2.7Y-3.7
T2
X2.9325Y-3.0045
X2.9325Y-3.1045
X2.9325Y-3.2045
X2.9325Y-3.3045
X3.2325Y-3.0045
X3.2325Y-3.1045
X3.2325Y-3.2045
X3.2325Y-3.3045
T3
X2.9Y-2.2
X2.9Y-2.3
X2.9Y-2.4
X4.Y-1.7
X4.Y-1.8
X4.Y-1.9
X2.5Y-1.8
X2.5Y-1.9
X3.4482Y-2.6719
X3.4482Y-2.7719
X3.4482Y-2.8719
X2.Y-2.5
X2.Y-2.6
X2.Y-2.7
T0
M30
